<?xml version="1.0" encoding="UTF-8"?>
<svg id="Layer_2" data-name="Layer 2" xmlns="http://www.w3.org/2000/svg" viewBox="0 0 60.37 60.37">
  <defs>
    <style>
      .cls-1 {
        fill: #005d38;
      }
    </style>
  </defs>
  <g id="Layer_1-2" data-name="Layer 1">
    <g>
      <path class="cls-1" d="M39.92,29.89c1.89.41,4.51-.94,4.11-3.15-.27-1.51-3.07-2.16-4.32-2.73-1.47-.66-3.31-2.04-4.91-.85-.03.02-.1.08-.03.09,1.86-.4,3.21.54,4.81,1.19.94.39,2.06.7,2.95,1.13,1.07.52,1.61,1.4.94,2.53-.77,1.3-2.73,1.55-4.07,1.21-1.3-.34-2.5-1.16-3.9-1.17l1.84-.41c1.31-.25,2.11-1.78,1.28-2.91-.04.21.08.4.09.61.12,1.98-2.22,1.87-3.57,2.15-1.93.4-3.58,1.31-4.56,3.07-.49-3.76,2.15-7.64,5.78-8.61,1.12-.3,2.44-.39,3.59-.24.73.09,1.41.38,2.13.46l-.35-.32-.48-.28-1.55-.49c.23.05,1.26-.76,1.11-.9-.07-.07-.67.42-.82.49-.95.46-1.77.32-2.76.45-3.39.43-6.09,3.09-7.06,6.28l-.76-1.69c-1.3-2.42-3.58-4.24-6.36-4.59-1.02-.13-1.85,0-2.83-.49-.25-.13-.44-.34-.69-.45.04.35.44.6.72.77.05.03.45.13.33.22-.02.01-.27,0-.36.01-.72.16-1.5.44-2.02.98.61-.06,1.19-.28,1.79-.39,3.51-.6,6.73.75,8.6,3.77.97,1.57,1.26,3.16,1.14,5.01l-.64-.9c-1.04-1.22-2.35-1.83-3.9-2.16-1.69-.36-4.14-.16-3.5-2.76-.77,1.02-.18,2.45.99,2.82l2.09.5c-2.44.19-4.22,2.03-6.77.98-1.15-.48-2.08-1.98-1.03-3.04.58-.6,3.03-1.33,3.94-1.71,1.49-.62,2.31-1.29,4.07-1.17.12,0,.59.14.61.12.11-.09-.09-.12-.12-.14-1.77-1.18-3.67.3-5.32,1.03-1.59.7-4.61,1.27-3.87,3.67.31,1.01,1.77,2.08,2.81,2.08h1.19c-.9.78-2.03,1.35-3.16,1.7-.7.22-1.8.34-2.36.79-.07.05-.16.07-.13.19.93-.4,1.96-.39,2.92-.66,2.05-.56,3.36-2.04,5.32-2.72,2.59-.91,5.41-.63,6.38,2.27-1.41-1.1-3.05-1.15-4.7-.6-.6.2-1.16.5-1.76.69-.77.24-1.55.32-2.32.54-.85.24-1.86.92-2.72.82l-.85-.26c1.12,1.02,2.39.1,3.61-.18.54-.12,1.11-.16,1.65-.28,2.08-.45,3.92-1.84,6.09-.63,2.45,1.37.6,4-1.28,4.8-1.99.84-3.46-.11-5.4.31-.45.1-1.05.39-1.49.38-1.08,0-2.03-.76-3.16-.43-.07.02-.25.05-.25.13.33-.05.67-.09,1-.04l2.26.68c-.32.11-.59.34-.92.45-.99.36-1.89.15-2.87-.1.82.66,2.08.81,3.09.49.89-.28,1.77-.97,2.72-1.07,1.25-.13,2.41.32,3.67.23,1.4-.1,2.91-.96,3.78-2.04-.06.78-.57,1.67-1.17,2.21-1.92,1.75-3.68.14-5.75.89-.44.16-1.19.8-1.36.85-.2.06-.58.04-.83.1-.45.1-1.63.56-1.95.56h-1.05c-.05,0-.36-.13-.38-.12-.1.09.07.12.12.14,1.27.58,2.52-.31,3.79-.32-.59.95-1.15,1.83-2.21,2.3,1.56.15,2.06-1.67,3.06-2.47.49-.39,1.23-.67,1.86-.7.89-.05,1.76.31,2.65.29-.32.3-.73.49-1.05.78-.16.15-.51.65-.58.7-.13.08-.88-.05-1.14-.03-.8.05-1.66.63-1.91,1.41-.02.06-.1.28.02.28.29-.62.89-1.21,1.57-1.37.23-.05.99-.11,1.17,0,.12.08-.08.34-.12.47-.16.51-.12.76-.55,1.14-.78.68-2.16.79-3.14.94-.1.02-.1-.03-.09.12h1.43c.26,0,.95-.19,1.22-.29.33-.11.62-.27.9-.47-.1.34.2.82.11,1.12-.07.23-1.24.88-.98,1.5l.47-.73.7-.55c.22.62.35,1.26.32,1.92.61-.82.06-1.84-.07-2.72-.51-3.35,3.02-3.48,4.67-5.43.22-.26.37-.58.61-.82.06,1.16-.46,2.16-1.4,2.82-.64.44-1.61.74-2.08,1.36-.73.94-.06,1.82-.51,2.87-.09.22-.26.37-.32.58.49-.25.77-.9.81-1.43.05-.53-.09-.93.18-1.45.27-.49.83-.72,1.3-.97.03.23-.04.44-.03.67,0,.25.14.55.11.8-.05.4-.53.93-.75,1.27.12.09.55-.4.64-.5.09-.11.22-.49.29-.23.18.62.14,1.42-.27,1.95-.19.24-.63.33-.92.54-.4.29-.7.71-.74,1.21.15.03.1-.04.14-.11.31-.52.56-1.03,1.25-1.11-.12.58-.02,1.37.58,1.63-.08-.32-.3-.68-.29-1.01.02-.71.68-1.28.76-2.1.08-.94-.35-1.81-.23-2.68.07-.52.51-.88.93-1.14-.07.65-.26,1.14-.09,1.81.28,1.1,1.3,1.06.82,2.44-.32.92-1.15,1.76-1.08,2.8h.29c.14-.84.78-1.48,1.05-2.27.15-.02.09,0,.11.09.12.53.35,1,.29,1.57-.02.16-.34.94.02.49.57-.72.11-1.42.05-2.17-.04-.41.04-.85-.02-1.27-.11-.8-.89-1.29-.98-2.05-.1-.85.28-1.67.47-2.48.38.57.97.97,1.4,1.49,1.01,1.24.03,2.11.18,3.44.11,1.02,1.07,1.31.73,2.53-.05.19-.17.34-.21.52.06.06.31-.21.35-.26.31-.4.34-.89.23-1.37.65.08.99.57,1.26,1.11.04.08-.01.15.14.12-.04-.65-.42-1.04-.95-1.35-.25-.14-.53-.17-.71-.4-.39-.51-.46-1.31-.28-1.91.01-.05,0-.18.1-.13.08.04.63.98.85.82-.18-.3-.74-.97-.75-1.31-.01-.38.23-.83,0-1.25.61.14,1.5.62,1.57,1.31.03.29-.02.62,0,.93.05.53.33,1.17.81,1.43-.14-.36-.41-.69-.46-1.08-.11-.83.31-1.44-.3-2.21-.46-.59-1.29-.8-1.88-1.21-1.04-.71-1.75-1.84-1.67-3.14.21.23.35.52.55.76,1.55,1.84,5.05,2.14,4.8,5.15-.09,1.02-.82,2.17-.08,3.12,0-.28-.05-.55-.02-.84.04-.37.2-.78.28-1.14.1-.03.12.04.17.09.45.35.63.61.9,1.08.04.08,0,.15.14.11.03-.28-.09-.5-.24-.72-.15-.21-.79-.73-.83-.85-.06-.15.23-.82.14-1.05.28.15.56.34.86.45.22.08,1.01.3,1.21.3h1.49c0-.15.01-.1-.09-.12-.93-.14-3.03-.36-3.48-1.36-.14-.32-.14-.83-.39-1.15,1.22-.37,2.25.29,2.83,1.34-.03-.97-1.08-1.63-1.98-1.69-.26-.02-.88.1-1.02.03-.06-.03-.6-.68-.76-.82-.29-.25-.64-.42-.93-.67.95.04,1.86-.38,2.82-.28.66.07,1.32.38,1.81.81.93.8,1.45,2.52,2.94,2.36-1.07-.46-1.59-1.38-2.21-2.3,1.18.03,2.17.7,3.38.44.08-.02.5-.13.52-.15.23-.23-.36,0-.38,0h-1.05c-.29,0-1.23-.4-1.61-.49-.36-.08-.88-.09-1.17-.17-.1-.03-.56-.43-.74-.54-1.99-1.17-3.54.17-5.42-.58-1.07-.43-1.94-1.62-2.15-2.74-.02-.12.02-.1.09-.03.88.96,1.9,1.67,3.22,1.91,1.74.31,3.24-.52,4.96.05.81.27,1.69.93,2.54,1.02.85.08,1.79-.09,2.47-.61-.44.01-.91.22-1.38.26-.85.07-1.67-.14-2.35-.66,0-.07.62-.14.76-.18.83-.22,1.52-.71,2.45-.44-.02-.1-.11-.11-.19-.13-.96-.34-1.92.31-2.87.37-.79.05-1.13-.18-1.84-.32-2.16-.45-3.65.68-5.83-.52-1.99-1.1-3.12-3.79-.38-4.81,2-.74,3.24.26,5.04.73.73.19,1.49.24,2.22.4,1.19.27,2.53,1.19,3.61.18l-.85.26c-.85.1-1.72-.51-2.54-.77-.71-.22-1.44-.29-2.14-.48-.79-.21-1.52-.61-2.29-.86-1.54-.5-3.29-.41-4.53.72.99-3.04,3.89-3.24,6.55-2.27,1.86.67,3.07,2.07,5.01,2.62,1.03.29,2.11.32,3.11.7-.65-.67-1.69-.71-2.55-.97-1.11-.34-2.34-.99-3.22-1.76Z"/>
      <path class="cls-1" d="M29.81,22.61c.04.13.12.67.15.7.01.01.26.02.31,0,.08-.02.15-.58.19-.7.6-1.88,2.16-3.37,2.87-5.23.5-1.31.66-2.7.77-4.09l-.23.62c-.11.43-.57,2.76-.82,2.91-.11.07-.56-.27-.64-.35-.23-.25-.24-.45-.29-.76-.02-.1.04-.1-.11-.09-.05.5.07.88.44,1.22.1.09.38.24.41.29.11.18-.46,1.12-.59,1.33-.49.83-1.1,1.64-1.62,2.46-.08.13-.42.78-.47.81-.09.04-.08-.04-.1-.07-.2-.28-.36-.62-.54-.91-.3-.46-2.29-3.31-2.11-3.61.52-.26.95-.76.87-1.38-.01-.08-.04-.18-.12-.09.02.29-.12.62-.32.82-.11.11-.51.43-.64.29l-1.02-3.5c.15,1.58.34,3.12.98,4.58.72,1.63,2.12,3.06,2.66,4.74Z"/>
      <path class="cls-1" d="M24.42,18.96c.12.13.28.79.38,1.02.12.29.41,1.01.58,1.22.09.1.16.15.29.17.3.06.3-.01.21-.27-.24-.67-.72-1.28-.94-2.03-.26-.88-.26-1.8-.3-2.7-.09,0-.11.18-.13.25-.05.17-.14.49-.16.66-.04.35,0,.8,0,1.17,0,.04.16.15-.03.14-.52-.03-1.25-.43-1.46-.93-.19.94,1.24.97,1.55,1.31Z"/>
      <path class="cls-1" d="M30.54,15.32c-1.21.11-2.09,1.48-2.15,2.62,1.09-.32,2.04-1.49,2.15-2.62Z"/>
      <path class="cls-1" d="M35.61,16.37c0,.92-.04,1.86-.31,2.75-.24.79-.72,1.49-.97,2.26.65.09.93-.85,1.13-1.34.1-.23.26-.95.38-1.08.25-.28,1.16-.2,1.49-.9.04-.08.18-.37.03-.41-.18.66-.93.83-1.52.93.11-.61.07-1.32-.09-1.92-.02-.08-.06-.28-.15-.29Z"/>
      <path class="cls-1" d="M32.9,22.31c.76-.84.92-2.33.23-3.26-.74.86-.89,2.31-.23,3.26Z"/>
      <path class="cls-1" d="M26.89,19.4c-.3.69-.22,1.63.08,2.31.06.14.3.65.47.54.06-.04.28-.72.29-.84.07-.64,0-1.38-.31-1.95-.21-.37-.32-.54-.53-.06Z"/>
      <path class="cls-1" d="M41.06,22.59c-.82-.33-1.77-.17-2.54.19-.09.13.36.36.45.4.6.26,1.44.26,2.04.02.53-.22.7-.35.06-.6Z"/>
      <path class="cls-1" d="M21.74,22.81c-.72-.44-1.9-.54-2.66-.16-.07.04-.38.21-.31.3.04.06.8.38.92.39.64.1,1.64,0,2.05-.54Z"/>
      <path class="cls-1" d="M36.89,19.38c-.46.26-.95.74-1.11,1.25.75.07,1.64-.28,2.09-.91.72-1.02-.45-.63-.98-.33Z"/>
      <path class="cls-1" d="M39.78,18.89c-.63.24-1.28.94-1.38,1.62.82.02,1.83-.6,2.06-1.41.02-.07.07-.22.03-.27-.09-.13-.57.01-.71.07Z"/>
      <path class="cls-1" d="M23.91,15.22c-.08-.17-.48-.78-.68-.72-.11.03-.2.55-.21.67-.04.69.35,1.49.84,1.95.35-.53.29-1.33.04-1.9Z"/>
      <path class="cls-1" d="M23.59,19.5c-.38-.27-.98-.5-1.44-.39.22,1,1.3,1.56,2.27,1.51.19-.19-.66-1-.83-1.12Z"/>
      <path class="cls-1" d="M20.47,18.89c-.87-.33-.82.11-.41.71.36.54,1.15.91,1.8.91-.13-.69-.73-1.37-1.38-1.62Z"/>
      <path class="cls-1" d="M36.97,14.45c-.79.64-1,1.76-.61,2.68.71-.57,1.18-1.88.61-2.68Z"/>
      <path class="cls-1" d="M41.6,33.71c.44.82,1.66,1.2,2.51.78-.34-.83-1.73-1.13-2.51-.78Z"/>
      <path class="cls-1" d="M17.16,34.66c.49-.05,1.35-.48,1.49-.98-.77-.27-1.83-.06-2.39.55-.37.4.63.46.9.43Z"/>
      <path class="cls-1" d="M24.51,24.23c-.02-.11-.14-.55-.29-.52-.1.02-.38.44-.43.56-.3.64-.36,1.47.08,2.06.54-.54.77-1.35.64-2.1Z"/>
      <path class="cls-1" d="M29.84,13.08c-.05-.25-.24-.12-.39-.04-.71.38-1.11,1.45-1.01,2.23.75-.32,1.55-1.33,1.4-2.18Z"/>
      <path class="cls-1" d="M36.39,26.27c.58-.69.37-2.08-.4-2.56-.35.41-.31,1.08-.18,1.58.04.16.43,1.02.58.99Z"/>
      <path class="cls-1" d="M21.08,32.98c0-.22-.51.03-.65.11-.65.35-1.12,1.06-1.13,1.81.85-.03,1.77-1.1,1.78-1.92Z"/>
      <path class="cls-1" d="M23.34,30.65c.28-.37-.43-.35-.68-.34-.67.05-1.34.42-1.68,1,.74.42,1.87-.02,2.36-.67Z"/>
      <path class="cls-1" d="M31.82,15.21c.09-.75-.28-1.73-.94-2.12-.2-.12-.42-.29-.46.05-.1.8.64,1.86,1.4,2.07Z"/>
      <path class="cls-1" d="M40.96,34.9c0-.99-.82-1.82-1.75-2.04-.03.93.82,1.95,1.75,2.04Z"/>
      <path class="cls-1" d="M27.71,13c-.76.56-.86,1.85-.35,2.61.6-.65.96-1.88.35-2.61Z"/>
      <path class="cls-1" d="M36.83,30.41c.39.87,1.49,1.22,2.39.99.03-.39-.55-.77-.87-.9-.48-.19-1.03-.26-1.51-.09Z"/>
      <path class="cls-1" d="M32.98,15.56c.35-.86.36-1.97-.44-2.56-.4.5-.34,1.25-.13,1.82.04.12.42.85.57.74Z"/>
      <path class="cls-1" d="M22.39,24.51c-.32.62-.25,1.52.11,2.12.73-.63.78-1.74.35-2.56-.1-.08-.41.35-.45.45Z"/>
      <path class="cls-1" d="M41.49,25.69c-1-.25-1.99.38-2.39,1.28.72-.03,1.63-.27,2.13-.81.07-.07.33-.39.26-.47Z"/>
      <path class="cls-1" d="M26.25,30c.09-.04.71-.33.62-.46-.91-.32-2.03-.19-2.74.49.64.45,1.45.26,2.12-.04Z"/>
      <path class="cls-1" d="M16.73,29.54c.07-.09-.24-.32-.31-.36-.6-.38-1.55-.41-2.08.11.48.79,1.67.63,2.39.25Z"/>
      <path class="cls-1" d="M42.19,22.81c.52.49,1.34.72,2.04.53.06-.02.39-.13.4-.15.1-.14-.27-.4-.37-.46-.6-.35-1.54-.41-2.07.09Z"/>
      <path class="cls-1" d="M44.56,28.91c-.37.05-.8.25-1.03.54.46.45,1.52.51,2.06.2.15-.09.41-.3.24-.46-.29-.26-.9-.33-1.27-.27Z"/>
      <path class="cls-1" d="M33.74,29.45c-.06.01-.46.08-.35.21.05.06.79.41.92.45.6.21,1.28.32,1.82-.07-.61-.61-1.57-.78-2.39-.58Z"/>
      <path class="cls-1" d="M18.77,25.69c.38.87,1.43,1.24,2.33,1.28-.32-.95-1.35-1.53-2.33-1.28Z"/>
      <path class="cls-1" d="M37.82,26.57s.22-.69.23-.79c.06-.53-.02-1.45-.6-1.65-.29.09-.3,1.17-.26,1.42.03.2.4,1.18.64,1.02Z"/>
      <path class="cls-1" d="M17.99,26.22c-.48.1-.44,2.25.23,2.44.42-.56.43-1.43.12-2.04-.05-.09-.24-.43-.35-.4Z"/>
      <path class="cls-1" d="M15.9,23.29c.53.21,1.19.1,1.69-.15.1-.05.49-.28.4-.42-.09-.14-.84-.28-1.03-.27-.36.02-.92.2-1.18.45-.23.21-.15.28.13.39Z"/>
      <path class="cls-1" d="M42.59,27c-.01-.14-.2-.82-.37-.78-.51.11-.7,2.09-.18,2.44.47-.36.61-1.09.55-1.66Z"/>
      <path class="cls-1" d="M42.79,24.52c.08-.01.65-.2.67-.23.1-.14-.3-.37-.41-.43-.64-.31-1.44-.28-2.03.11l.35.29c.42.23.95.32,1.42.26Z"/>
      <path class="cls-1" d="M30.42,20.33c.07-.93-.57-1.79-1.51-1.86.03.86.65,1.72,1.51,1.86Z"/>
      <path class="cls-1" d="M16.92,24.05c-.17.15-.19.16.03.29.46.28,1.22.24,1.7.04.08-.03.56-.29.58-.32.14-.19-.79-.39-.91-.4-.45-.04-1.05.09-1.41.39Z"/>
      <path class="cls-1" d="M28.67,21.44c-.1.07-.33.81-.34.97-.07.7.38,2.26.77.77.13-.49.15-.99-.1-1.45-.04-.07-.22-.36-.32-.29Z"/>
      <path class="cls-1" d="M31.22,23.4c.25.66.45.44.61-.11.18-.6.14-1.41-.34-1.85-.52.48-.51,1.33-.27,1.96Z"/>
      <path class="cls-1" d="M33.42,24.3c-.47.39-.71.98-.66,1.59.01.17.14.87.39.73.03-.02.29-.5.33-.58.22-.51.36-1.31-.06-1.75Z"/>
      <path class="cls-1" d="M34.09,23.65c-.25.88.42,1.75,1.22,2.04.16-.8-.44-1.79-1.22-2.04Z"/>
      <path class="cls-1" d="M39.1,17.86c-.06.08-.29.53-.29.58,0,.12.45.03.54.01.63-.13,1.33-.59,1.39-1.27-.61-.08-1.26.17-1.63.67Z"/>
      <path class="cls-1" d="M27.27,26.68c.33-.57.29-1.83-.25-2.25-.27-.21-.35.05-.39.31-.09.68.09,1.5.64,1.95Z"/>
      <path class="cls-1" d="M21.45,18.47c-.26-.84-1.03-1.39-1.92-1.28.11.88,1.11,1.36,1.92,1.28Z"/>
      <path class="cls-1" d="M22.53,17.42c.47-.68.05-1.79-.64-2.15-.39.68-.03,1.75.64,2.15Z"/>
      <path class="cls-1" d="M35.6,15.96c.23-.59.16-1.52-.32-1.98-.35-.34-.46-.15-.5.26-.07.68.23,1.37.82,1.72Z"/>
      <path class="cls-1" d="M25.3,24.33c-.25.37-.39.91-.36,1.36.79-.25,1.44-1.14,1.22-1.98-.19-.13-.75.46-.86.62Z"/>
      <path class="cls-1" d="M43.7,32.92c.33.73,1.2,1.14,1.98.93-.1-.95-1.19-1.14-1.98-.93Z"/>
      <path class="cls-1" d="M43.82,31.17c.7.34,1.66.17,2.1-.49-.64-.52-1.81-.28-2.1.49Z"/>
      <path class="cls-1" d="M16.44,31.17c-.2-.61-1.06-.89-1.65-.74-.62.16-.5.38-.04.65.53.32,1.12.34,1.68.09Z"/>
      <path class="cls-1" d="M18.42,21.53c-.36-.36-.97-.49-1.47-.42-.27.04-.58.14-.74.36.57.67,1.58.62,2.21.06Z"/>
      <path class="cls-1" d="M16.55,32.92c-.79-.2-1.71-.03-1.98.84.7.44,1.69-.14,1.98-.84Z"/>
      <path class="cls-1" d="M37.73,17.42c.19.04.65-.74.71-.92.06-.21.17-1.21-.07-1.23-.26-.02-.71.79-.76,1.04-.03.18-.1,1.06.12,1.11Z"/>
      <path class="cls-1" d="M30.91,15.79c-.38.68.18,1.91.96,2.04.17-.82-.27-1.62-.96-2.04Z"/>
      <path class="cls-1" d="M31.29,28.66c.78-.4,1.39-1.18,1.11-2.1-.77.33-1.21,1.27-1.11,2.1Z"/>
      <path class="cls-1" d="M28.96,28.61c.04-.48-.09-.97-.34-1.38-.09-.15-.6-.77-.77-.66-.13.43-.08.88.16,1.26.09.14.82.9.94.77Z"/>
      <path class="cls-1" d="M42.76,21.11c-.32.04-.71.17-.92.42.55.38,1.1.59,1.75.29.48-.22.58-.42.03-.62-.3-.11-.54-.14-.86-.1Z"/>
      <path class="cls-1" d="M34.99,17.89c.45-.38-.26-2.19-.7-2.15-.18.01-.16.75-.14.9.06.55.41.95.84,1.25Z"/>
      <path class="cls-1" d="M25.45,14.81c.03-.2.08-1.09-.24-1-.07.02-.33.3-.38.38-.32.48-.41,1.24-.16,1.77.21,0,.73-.92.77-1.15Z"/>
      <path class="cls-1" d="M26.05,18.03c-.4.51-.51,1.15-.35,1.78.63-.36,1.01-1.05.93-1.78-.06-.61-.33-.32-.58,0Z"/>
      <path class="cls-1" d="M25.18,17.8s.05.08.12.06c.64-.22,1.07-1.53.76-2.13-.25-.18-.84.96-.87,1.19-.03.24,0,.61,0,.87Z"/>
      <path class="cls-1" d="M15.68,27.67c.2-.77,0-1.87-.87-2.1-.15.61.02,1.23.41,1.72.05.07.4.44.46.38Z"/>
      <path class="cls-1" d="M44.66,27.67c.61-.5,1-1.3.79-2.1-.82.19-1.19,1.43-.79,2.1Z"/>
      <path class="cls-1" d="M34.2,18.03c-.33-.42-.56-.58-.58.11-.02.6.34,1.4.93,1.6.16-.59.03-1.23-.35-1.72Z"/>
      <path class="cls-1" d="M29.83,24.09c-.21.6-.12,1.34.35,1.78.31-.65.51-1.2.19-1.9-.23-.51-.39-.29-.54.12Z"/>
      <path class="cls-1" d="M19.06,20.54c-.34-.43-.98-.7-1.53-.66-.47.04-.67.16-.28.54.43.42,1.34.51,1.81.11Z"/>
      <path class="cls-1" d="M41.2,20.54c.66.48,1.67.28,2.04-.47-.2-.18-.56-.21-.83-.19-.48.04-.91.3-1.21.65Z"/>
      <path class="cls-1" d="M40.35,28.96c.61-.41.89-1.36.61-2.04-.73.24-1.07,1.43-.61,2.04Z"/>
      <path class="cls-1" d="M19.9,28.96c.43-.67.17-1.77-.61-2.04-.22.69-.02,1.63.61,2.04Z"/>
      <path class="cls-1" d="M43.64,25.28c.74.06,1.57-.61,1.45-1.39-.71-.22-1.36.78-1.45,1.39Z"/>
      <path class="cls-1" d="M41.84,18.67c.06-.59,0-.78-.49-.38-.49.39-.65,1.03-.5,1.63.49-.08.94-.78.99-1.25Z"/>
      <path class="cls-1" d="M19.41,19.93c.15-.58-.01-1.25-.5-1.63-.5-.39-.56-.21-.49.38.06.51.47,1.12.99,1.25Z"/>
      <path class="cls-1" d="M16.67,30.61c.51.33,1.28.28,1.74-.11-.52-.52-1.37-.64-2.03-.32-.07.11.2.37.29.43Z"/>
      <path class="cls-1" d="M16.61,25.28c.23-.23-.92-1.78-1.45-1.39-.09.73.73,1.47,1.45,1.39Z"/>
      <path class="cls-1" d="M41.9,30.44c-.09.35,1,.39,1.23.35.21-.04.98-.42.7-.64-.18-.14-.77-.16-1-.13-.17.02-.88.28-.92.42Z"/>
      <path class="cls-1" d="M34.73,25.87c-.73.17-1.42.91-1.4,1.69.83-.21,1.42-.79,1.4-1.69Z"/>
      <path class="cls-1" d="M25.58,25.87c-.14.95.54,1.42,1.34,1.69.03-.73-.68-1.48-1.34-1.69Z"/>
      <path class="cls-1" d="M24.41,26.23c-.08.54.31.81.76.96.02-.42-.38-.84-.76-.96Z"/>
      <path class="cls-1" d="M35.4,26.16c-.08.54.31.81.76.96.02-.42-.38-.84-.76-.96Z"/>
      <path class="cls-1" d="M31.34,18.54s.12-.07.12-.1c-.31-.67-1.06-1.07-1.8-.85.02.56,1.25,1.13,1.67.95Z"/>
      <path class="cls-1" d="M22.44,28.17c0-.14-.81-.55-.96-.55h-.84c.15.8,1.23,1.23,1.8.55Z"/>
      <path class="cls-1" d="M37.82,28.26c.71.48,1.61.21,1.81-.64-.4-.01-.75-.02-1.14.11-.11.04-.78.38-.67.53Z"/>
      <path class="cls-1" d="M39.02,17.08c.2-.28.45-.5.66-.76-.83.34-1.3,1.44-1.63,2.21.45-.36.63-.98.97-1.45Z"/>
      <path class="cls-1" d="M22.2,18.53c-.1-.3-.27-.66-.44-.93-.31-.53-.69-1.07-1.25-1.34l.75.86c.36.45.46,1.08.94,1.42Z"/>
      <path class="cls-1" d="M30.18,0C13.54,0,0,13.54,0,30.18s13.54,30.18,30.18,30.18,30.18-13.54,30.18-30.18S46.83,0,30.18,0ZM30.18,60C13.74,60,.37,46.62.37,30.18S13.74.37,30.18.37s29.82,13.38,29.82,29.82-13.38,29.82-29.82,29.82Z"/>
      <polygon class="cls-1" points="10.09 23.53 8.57 23.19 7.86 26.35 6.86 26.13 7.45 23.54 5.98 23.2 5.39 25.8 4.37 25.57 5.08 22.4 3.56 22.05 2.46 26.95 8.99 28.42 10.09 23.53"/>
      <polygon class="cls-1" points="12.18 19.53 7.51 14.16 6.58 15.83 9.8 19.43 5.04 18.6 4.11 20.27 11.14 21.41 12.18 19.53"/>
      <polygon class="cls-1" points="17.17 13.81 16.07 12.7 13.76 14.99 13.05 14.27 14.93 12.39 13.87 11.32 11.98 13.2 11.24 12.45 13.55 10.16 12.45 9.06 8.89 12.59 13.61 17.34 17.17 13.81"/>
      <path class="cls-1" d="M19.13,12.62l-1.05-1.91.6-.33,2.15,1.31,1.81-1-2.41-1.43c.3-.36.48-.74.53-1.16.05-.41-.05-.84-.3-1.29-.35-.64-.83-1.01-1.44-1.11-.61-.1-1.32.06-2.12.5l-2.55,1.4,3.23,5.87,1.55-.85ZM16.72,8.25l.98-.54c.28-.15.53-.22.74-.19.21.03.37.15.48.35.11.2.12.4.03.59-.09.2-.27.37-.55.53l-.98.54-.7-1.28Z"/>
      <polygon class="cls-1" points="27.52 9.53 27.14 7.98 24.54 8.63 23.31 3.68 21.59 4.11 23.2 10.61 27.52 9.53"/>
      <polygon class="cls-1" points="32.93 7.93 29.68 7.93 29.68 6.91 32.34 6.91 32.34 5.4 29.68 5.4 29.68 4.35 32.92 4.35 32.92 2.79 27.91 2.79 27.91 9.49 32.93 9.49 32.93 7.93"/>
      <polygon class="cls-1" points="36.31 6.07 37.15 10.59 39.26 11.22 41.16 4.8 39.47 4.3 38.31 8.22 37.47 3.71 35.35 3.08 33.45 9.5 35.14 10 36.31 6.07"/>
      <path class="cls-1" d="M42.23,13.14c.4.27.82.46,1.25.55.43.09.86.1,1.27.02.42-.08.81-.24,1.18-.48.37-.24.69-.56.96-.96s.45-.81.54-1.25c.09-.43.1-.86.02-1.28-.08-.42-.24-.81-.49-1.18-.25-.37-.57-.69-.97-.96l-2.34-1.59-3.77,5.54,2.34,1.59ZM44.14,8.44l.88.6c.18.12.33.27.44.44.11.17.18.35.21.54.03.19.02.39-.03.59-.05.2-.14.4-.28.6-.14.2-.29.36-.46.48-.17.12-.35.2-.54.24-.19.04-.38.04-.58,0-.2-.04-.39-.12-.57-.24l-.88-.6,1.81-2.66Z"/>
      <path class="cls-1" d="M46.03,16.19c.11,0,.21-.02.32-.06.1-.04.2-.1.28-.19.17-.16.25-.36.25-.59,0-.23-.08-.43-.24-.6-.08-.09-.18-.15-.28-.19s-.21-.07-.32-.07-.21.02-.32.06c-.1.04-.2.1-.28.18-.17.16-.25.36-.25.6,0,.24.08.44.24.6.08.08.17.14.27.19.1.04.21.07.32.07Z"/>
      <path class="cls-1" d="M48.14,19.3c.24.37.52.68.86.93.33.25.69.43,1.07.55s.77.17,1.18.14c.4-.02.79-.12,1.17-.28l-1.06-1.64c-.32.1-.64.09-.96-.03s-.57-.33-.76-.62c-.12-.19-.2-.39-.23-.61-.03-.22-.03-.43.02-.63s.14-.4.26-.58.28-.34.48-.46c.19-.12.39-.2.61-.24.22-.04.43-.04.63,0,.21.04.4.12.58.24.18.12.34.27.46.46.19.3.28.61.26.95-.02.34-.14.63-.37.89l1.06,1.64c.31-.28.56-.6.74-.95.18-.36.3-.73.35-1.13.05-.4.03-.8-.06-1.2-.09-.4-.26-.79-.5-1.16-.26-.4-.58-.73-.96-.99-.38-.26-.79-.43-1.22-.53-.44-.1-.88-.11-1.33-.03-.45.07-.88.24-1.27.5-.4.26-.72.58-.98.96-.25.38-.42.79-.52,1.23-.09.44-.1.88-.02,1.33.08.45.25.88.51,1.28Z"/>
      <path class="cls-1" d="M50.45,23.64l1.14.1.68,2.54-.94.66.46,1.73,5.84-4.07-.56-2.08-7.09-.61.46,1.73ZM55.49,24.06l-2.02,1.41-.43-1.62,2.46.21Z"/>
      <g>
        <polygon class="cls-1" points="6.55 35.39 6.95 35.33 6.69 33.42 8.07 33.22 8.37 35.37 8.78 35.32 8.41 32.73 4.65 33.26 4.71 33.69 6.28 33.47 6.55 35.39"/>
        <path class="cls-1" d="M9.17,36.74l-4.13-.6.13.46,1.15.16.54,1.89-.89.75.13.46,3.18-2.71-.12-.4ZM7.2,38.37l-.45-1.55,1.98.27-1.53,1.28Z"/>
        <path class="cls-1" d="M9.15,41.49l-.16-.61c-.11-.45-.05-.75.26-.89.39-.19.77.03,1.01.54.27.56.15.97-.22,1.24l.19.4c.67-.42.68-1.15.36-1.83-.35-.74-.97-1.05-1.57-.76-.47.22-.64.67-.47,1.33l.18.7c.13.47,0,.76-.26.89-.39.19-.79-.03-1.04-.56-.29-.61-.18-1.12.3-1.44l-.19-.39c-.71.43-.87,1.17-.48,1.99.37.77,1.02,1.1,1.64.8.51-.24.62-.72.44-1.4Z"/>
        <polygon class="cls-1" points="12.73 44.8 13.07 44.58 11.26 41.88 10.92 42.11 11.7 43.27 8.88 45.17 9.13 45.54 11.95 43.64 12.73 44.8"/>
        <polygon class="cls-1" points="13.44 47.65 14.4 46.64 15.97 48.14 16.25 47.85 14.37 46.04 11.74 48.79 12.05 49.09 13.15 47.95 14.55 49.29 14.83 48.99 13.44 47.65"/>
        <path class="cls-1" d="M18.38,50.86c.43-.61.21-1.34-.49-1.83l-1.18-.82-2.18,3.12.36.25.78-1.12.79.55.13,1.75.45.31-.13-1.82c.57.22,1.13.1,1.47-.4ZM16.71,50.69l-.81-.56.93-1.34.81.56c.49.34.67.84.38,1.26-.29.42-.83.42-1.31.08Z"/>
        <rect class="cls-1" x="17.13" y="51.74" width="3.81" height=".44" transform="translate(-35.72 43.89) rotate(-61.49)"/>
        <polygon class="cls-1" points="23.26 52.25 23.42 51.87 20.96 50.85 19.51 54.37 21.97 55.39 22.13 55.01 20.07 54.16 20.56 52.98 22.4 53.74 22.56 53.37 20.71 52.6 21.21 51.4 23.26 52.25"/>
        <polygon class="cls-1" points="26.14 55.68 24.43 52.18 24.08 52.1 23.24 55.81 23.67 55.91 24.33 52.98 26.04 56.45 26.4 56.53 27.24 52.82 26.81 52.72 26.14 55.68"/>
        <path class="cls-1" d="M29.43,52.97l-1.34-.05-.15,3.8,1.34.05c1.17.05,2.04-.72,2.08-1.85.04-1.1-.76-1.91-1.94-1.95ZM29.29,56.37l-.89-.03.12-2.99.9.03c.91.04,1.53.68,1.5,1.53-.03.89-.71,1.5-1.61,1.46Z"/>
        <polygon class="cls-1" points="33 56.29 32.59 52.92 32.15 52.97 32.61 56.75 35.13 56.44 35.08 56.03 33 56.29"/>
        <polygon class="cls-1" points="37.08 52.05 36.31 54.34 34.56 52.67 34.09 52.79 36.19 54.8 36.52 56.11 36.95 56 36.63 54.69 37.56 51.94 37.08 52.05"/>
        <polygon class="cls-1" points="42.24 51.8 40.5 52.66 39.88 51.4 41.83 50.44 41.65 50.08 39.31 51.23 40.98 54.65 41.38 54.45 40.68 53.02 42.42 52.17 42.24 51.8"/>
        <rect class="cls-1" x="43.16" y="49.3" width=".44" height="3.81" transform="translate(-20.58 30.9) rotate(-32.12)"/>
        <polygon class="cls-1" points="45.53 47.23 47.45 49.59 43.63 48.78 43.36 49.01 45.76 51.95 46.11 51.67 44.21 49.35 47.99 50.13 48.28 49.9 45.87 46.95 45.53 47.23"/>
        <path class="cls-1" d="M47.35,45.31l1.8,3.77.31-.36-.51-1.05,1.27-1.5,1.12.33.31-.36-4.02-1.15-.27.32ZM49.8,46.06l-1.04,1.23-.87-1.79,1.91.56Z"/>
        <polygon class="cls-1" points="50.39 40.82 53.03 42.33 49.17 42.94 48.99 43.26 52.3 45.14 52.52 44.76 49.91 43.27 53.73 42.65 53.91 42.33 50.61 40.44 50.39 40.82"/>
        <path class="cls-1" d="M54.46,37.04l-.15.43c.53.35.75.96.52,1.61-.28.81-1.14,1.23-1.98.94s-1.25-1.14-.97-1.96c.23-.66.76-1,1.4-.95l.15-.43c-.87-.11-1.64.36-1.94,1.25-.36,1.04.15,2.15,1.21,2.52,1.06.37,2.16-.19,2.51-1.23.31-.88,0-1.73-.76-2.18Z"/>
        <polygon class="cls-1" points="55.69 35.65 54.43 35.45 54.75 33.47 54.35 33.41 54.03 35.38 52.74 35.17 53.1 32.98 52.69 32.92 52.27 35.55 56.03 36.15 56.45 33.52 56.05 33.45 55.69 35.65"/>
      </g>
      <path class="cls-1" d="M30.13,11.12c-10.51,0-19.07,8.55-19.07,19.07s8.55,19.07,19.07,19.07,19.07-8.55,19.07-19.07-8.55-19.07-19.07-19.07ZM30.13,49.02c-10.39,0-18.84-8.45-18.84-18.84S19.74,11.35,30.13,11.35s18.84,8.45,18.84,18.84-8.45,18.84-18.84,18.84Z"/>
    </g>
  </g>
</svg>